<svg xmlns="http://www.w3.org/2000/svg" width="256" height="256"><path fill="#1976D2" fill-opacity=".016" fill-rule="evenodd" d="M0 128.004v128.004l128.25-.254 128.25-.254.254-127.75L257.008 0H0zm.485.496c0 70.4.119 99.053.265 63.672s.146-92.98 0-128S.485 58.1.485 128.5"/><path fill="#1976D2" fill-opacity=".394" fill-rule="evenodd" d="M108 1.422c-32.557 5.87-57.972 20.294-77.893 44.21C8.753 71.267-1.101 100.297.282 133.5c.562 13.504 2.253 23.405 5.891 34.5 12.299 37.502 43.218 68.708 80.709 81.46 14.25 4.846 22.401 6.024 41.618 6.01 16.473-.011 18.933-.252 29-2.84 38.233-9.828 67.666-33.208 84.91-67.451 6.377-12.664 12.566-34.211 12.605-43.887.012-2.816.265-3.406.985-2.292.65 1.006.942-2.948.885-12-.052-8.293-.393-12.536-.885-11-.698 2.179-.815 1.986-.913-1.5-.357-12.627-8.092-36.219-16.723-51-6.401-10.961-11.614-17.504-22.008-27.619C199.563 19.538 178.813 8.373 155 2.866 143.837.285 118.607-.49 108 1.422M69 70.447c-6.875 13.975-12.785 25.442-13.134 25.481-.348.04-3.721-5.3-7.495-11.865-5.406-9.404-7.056-11.59-7.775-10.305-2.302 4.113-1.031 9.685 5.3 23.23 7.073 15.135 6.881 12.81 2.679 32.512-2.486 11.656-3.416 26.64-1.81 29.146.413.643 3.361-5.831 6.719-14.75C56.775 135.153 59.73 128 60.05 128s1.898 2.752 3.505 6.115C66.798 140.9 70.001 144 73.769 144c2.472 0 2.494-.076 2.007-6.893-.431-6.016-1.141-8.009-5.583-15.663-3.575-6.162-4.839-9.242-4.249-10.357.461-.873 4.08-11.712 8.04-24.087 6.103-19.067 7.304-23.988 7.875-32.25.37-5.362.441-9.741.157-9.731-.284.011-6.141 11.453-13.016 25.428m143.261-21.013c-3.033 2.552-18.122 31.08-22.381 42.316-1.304 3.438-2.654 6.25-3.002 6.25s-1.575-2.193-2.729-4.874c-2.175-5.057-10.475-15.092-11.585-14.008-.349.34-.179 2.59.377 5 1.52 6.592 1.317 8.581-.936 9.17-1.097.287-2.27 1.239-2.607 2.116-.725 1.892 3.711 13.523 7.194 18.862l2.457 3.766-6.075 14.611c-3.341 8.037-6.283 15.792-6.536 17.234-.254 1.443.122 5.098.835 8.123l1.297 5.5 8.965-17.241c4.931-9.483 9.273-17.246 9.65-17.25s4.484 4.829 9.127 10.741c5.693 7.249 9.459 11.129 11.565 11.913 1.718.64 3.094.865 3.058.5s-3.797-8.763-8.358-18.663l-8.292-18 9.058-18c8.982-17.847 9.086-18.138 12.204-34.25 2.907-15.024 3.011-16.25 1.375-16.25-.973 0-3.07 1.095-4.661 2.434M.392 128c0 7.425.157 10.463.35 6.75s.192-9.787 0-13.5c-.193-3.713-.35-.675-.35 6.75m87.734 56.883c-5.265 4.918-6.632 12.142-3.532 18.673 3.14 6.618 17.258 10.766 24.378 7.164 1.36-.689 3.788-3.21 5.396-5.605l2.924-4.353 4.623 5.244c4.222 4.788 5.068 5.286 9.738 5.735 9.711.933 16.87-2.925 20.786-11.204 3.421-7.231 3.237-8.77-.443-3.691-5.638 7.784-14.431 12.42-20.126 10.613-1.268-.403-4.624-3.145-7.458-6.095-6.814-7.091-9.131-7.152-14.007-.364-3.108 4.326-4.054 5-7.013 5-2.501 0-4.426-.921-7.157-3.423-3.418-3.132-3.735-3.875-3.735-8.75 0-2.93.373-6.79.829-8.577 1.08-4.229-.919-4.37-5.203-.367"/><path fill="#1976D2" fill-opacity=".395" fill-rule="evenodd" d="M104.5 2.651C44.815 13.5.828 66.397.68 127.5c-.083 34.259 11.443 63.651 34.523 88.033 23.63 24.963 55.185 39.071 88.931 39.76 11.937.244 25.744-.946 27.455-2.367.728-.604 1.793-.808 2.367-.453s1.044-.057 1.044-.914.563-1.611 1.25-1.674c.688-.064 1.7-.22 2.25-.348s2.238-.301 3.75-.385c1.512-.083 2.75-.583 2.75-1.11s-1.598-.832-3.551-.678-3.827-.167-4.165-.713c-.337-.546-.966-.041-1.396 1.123-.653 1.764-1.249 1.985-3.586 1.325-1.541-.435-3.427-.577-4.191-.315-.846.289-1.116.033-.691-.654.384-.622 1.534-1.13 2.556-1.13 1.021 0 2.017-.479 2.212-1.065.426-1.277 7.812-2.029 7.812-.796 0 .474.723.861 1.607.861.97 0 1.393-.557 1.067-1.406-.296-.773.218-2.055 1.143-2.848 2.941-2.52 3.919-2.763 3.914-.973-.01 3.485.3 4.227 1.769 4.227.825 0 1.5-.45 1.5-1s-.477-1-1.059-1-.787-.441-.454-.979c.333-.539.07-1.98-.584-3.203-.916-1.712-.917-2.313-.005-2.617.895-.299.904-.735.039-1.777-.731-.88-1.744-1.085-2.792-.564-2.259 1.124-9.463.687-9.892-.6-.192-.576-1.146-.839-2.121-.584-.974.255-2.307-.182-2.961-.969-.992-1.196-.733-1.363 1.57-1.009 2.249.345 2.451.227 1.092-.64-2.196-1.402-6.001-.934-7.657.942-.871.986-1.084 1.034-.622.138.389-.754.088-1.751-.676-2.234-1.07-.678-.96-.877.494-.889 1.505-.012 1.641-.294.693-1.436-.968-1.167-.81-1.325.878-.884 1.203.315 2.057.057 2.057-.622 0-.638-.562-1.088-1.25-.998-3.775.49-6.75-.204-6.75-1.575 0-2.064-1.743-1.884-3.121.322-.924 1.479-1.92 1.703-5.295 1.191-2.286-.347-4.703-.969-5.371-1.381-.713-.441-1.219-.211-1.228.559-.012 1.042-.179 1.051-.818.045-.637-1.003-1.436-.948-3.869.265-4.995 2.492-16.409 2.105-14.798-.502.294-.474-.413-1.525-1.57-2.336-1.973-1.381-1.989-1.507-.267-2.011 1.01-.296 4.073-.399 6.807-.23 4.683.291 5.204.068 9.015-3.853l4.045-4.162-2.955-4.203c-1.624-2.312-3.441-4.204-4.037-4.204s-1.961 1.631-3.035 3.624c-2.814 5.226-5.521 6.626-12.813 6.626-14.841 0-23.402-10.95-17.727-22.674 2.391-4.94 8.442-9.571 10.203-7.81.692.692.646 1.717-.145 3.194-1.49 2.784-1.508 12.262-.029 15.026 1.426 2.663 6.811 6.005 9.685 6.01 1.198.002 3.111-1.182 4.25-2.631 2.446-3.109 2.62-4.365.604-4.365-.894 0-1.243-.586-.893-1.5.317-.825.051-1.5-.59-1.5-.663 0-.841-.526-.412-1.22.914-1.48 1.24-7.892.471-9.28-.872-1.574-.698-3.935.346-4.684.524-.377.974-1.952 1-3.5.046-2.774.139-2.816 6.118-2.816 4.349 0 6.547-.476 7.75-1.679.923-.923 1.679-1.931 1.679-2.24 0-.723-7.36.187-12.384 1.53-4.574 1.223-8.616.458-8.616-1.63 0-.815-.468-1.481-1.039-1.481-.601 0-.495-.593.25-1.404 1.364-1.487 2.908-1.611 3.869-.312.937 1.266 3.743-.284 3.501-1.933-.122-.831-.865-1.945-1.651-2.476-1.073-.724-.806-.891 1.07-.67 1.726.204 2.469-.173 2.401-1.217-.077-1.167.793-1.427 3.809-1.139 2.86.272 4.247-.092 5.175-1.36 1.237-1.693 6.582-2.799 13.365-2.766 1.787.008 3.25-.376 3.25-.854s-.9-.869-2-.869c-2.267 0-2.563-1.037-.8-2.8.933-.933.798-1.2-.607-1.2-1.237 0-1.615-.499-1.2-1.582.334-.87.607-1.77.607-2s1.575-.418 3.5-.418 3.5-.459 3.5-1.019c0-.576-1.194-.784-2.75-.477l-2.75.542 2.5-1.172c1.375-.644 3.104-1.296 3.842-1.448 1.975-.406 2.715-1.419 1.075-1.471-.779-.025-2.767-.695-4.417-1.49s-2.1-1.235-1-.978 2.662.052 3.472-.456c1.26-.791 1.224-1.018-.25-1.584-2.625-1.008-2.054-2.433 1.028-2.565l2.75-.119-3-.763c-1.65-.42-2.213-.817-1.25-.882S141 131.55 141 131s-.787-1.007-1.75-1.015c-1.468-.013-1.513-.166-.279-.946.809-.512 1.2-1.201.869-1.532s-1.298.094-2.15.945c-1.688 1.689-8.704 2.117-10.24.626-.582-.565-2.404-.417-4.7.382-2.062.717-3.75.94-3.75.495s.787-.993 1.75-1.22-1.003-.421-4.368-.432c-6.583-.023-8.759-.752-7.824-2.622.325-.65-.01-.456-.743.431-.912 1.102-2.36 1.462-4.574 1.137-3.353-.492-4.123.469-2.041 2.551.933.933.826 1.2-.481 1.2-1.545 0-1.965-.947-3.148-7.107-.25-1.302.605-1.598 4.5-1.558 2.645.027 4.585.413 4.31.857-.274.444.172.808.993.808q1.492-.001 1.411-2.856c-.104-3.653.773-5.016 4.062-6.316 2.493-.985 2.533-1.098.653-1.868-1.702-.697-1.739-.83-.25-.89 1.787-.071 2.541-2.07.781-2.07-.532 0-.681-.749-.33-1.664.381-.992.233-1.414-.364-1.044-.552.341-1.004-.015-1.004-.792s.335-1.205.743-.953c1.168.722 3.924-.636 3.924-1.933 0-.645.883-1.809 1.962-2.587 1.467-1.057 1.688-1.743.878-2.72-.597-.719-1.731-1.307-2.521-1.307-.791 0-1.183-.412-.872-.915s.225-1.065-.191-1.25c-1.53-.678-6.256-7.033-6.256-8.412 0-.783.9-1.423 2-1.423s2-.47 2-1.044.563-.971 1.25-.881c3.28.426 4.177-.186 2.025-1.382-2.113-1.175-2.148-1.385-.687-4.215 1.831-3.549 3.71-5.642 3.233-3.603-.592 2.532 2.136 2.314 3.311-.265.638-1.401 1.545-2.31 2.014-2.02.47.291.854-.061.855-.781 0-.72 1.17-1.377 2.6-1.459 3.28-.19 5.782-2.35 2.721-2.35-1.142 0-2.678-.724-3.412-1.608-1.134-1.367-1.048-1.818.569-3 1.047-.766 2.942-1.392 4.212-1.392 2.56 0 3.112-1.478.874-2.337-.79-.303-1.634-.013-1.875.643-.336.912-.753.899-1.765-.056-.829-.782-.911-1.25-.219-1.25.614 0 .874-.89.584-2-.304-1.162-.031-2 .652-2 .647 0 .927.403.623.895-.305.493.156 1.168 1.023 1.5 2.986 1.146 5.279.6 5.917-1.41.375-1.183 1.125-1.731 1.817-1.328.648.378.346-.263-.671-1.423-1.494-1.705-2.324-1.929-4.329-1.166-1.575.599-3.09.587-4.151-.032-1.346-.786-1.069-.981 1.424-1.006 1.812-.017 3.858-.873 4.937-2.065 1.013-1.12 2.418-1.814 3.123-1.544.704.27 1.518.108 1.807-.36.29-.468-.174-1.12-1.031-1.449s-1.281-1.046-.942-1.593c.343-.556-.014-.755-.808-.45-.783.3-1.692-.155-2.021-1.012-.328-.856-1.71-1.557-3.07-1.557-2.892 0-4.394-1.754-2.217-2.59.826-.316 1.256-1.213.957-1.993-.328-.853.083-1.417 1.032-1.417.989 0 1.361-.558 1-1.5-.317-.825-1.004-1.5-1.528-1.5s-.674.45-.334 1 .25 1-.2 1c-.451 0-1.356-.86-2.012-1.911-1.323-2.117-.099-3.061 4.044-3.119 2.127-.03 2.13-.053.168-1.17-1.1-.627-2.728-1.964-3.617-2.97-.89-1.007-2.127-1.83-2.75-1.83-1.038 0-1.237-.553-1.533-4.25-.055-.687-.55-1.617-1.1-2.065s1.732-.65 5.07-.449c5.464.329 6.174.145 7.112-1.842.93-1.971.739-2.252-1.782-2.622-1.74-.255-3.018.092-3.33.907-.279.726-1.084 1.314-1.789 1.306-.91-.011-.847-.328.219-1.095 1.21-.87 1.113-.947-.5-.398-6.097 2.073-12.53 2.878-13.695 1.713-.94-.94-.928-1.205.054-1.205.692 0 .981-.45.641-1-.382-.618 1.41-1.006 4.691-1.015 2.92-.009 4.859-.346 4.309-.75-1.996-1.467-1.482-3.235.941-3.235 1.343 0 2.719-.45 3.059-1s-.084-1-.941-1S129 3.517 129 2.927c0-.591-.787-.922-1.75-.737s-1.757.781-1.765 1.324c-.009.542-.373 1.549-.809 2.236s-.43 1.257.015 1.265c.835.016-1.799 1.943-2.691 1.969-.275.008-.563-1.077-.64-2.411-.106-1.841.256-2.289 1.5-1.857 1.46.505 1.475.4.14-.962-2.252-2.297-9.543-2.731-18.5-1.103M138 9c0 1.253 1.061 1.253 3 0 1.213-.784 1.069-.972-.75-.985-1.238-.008-2.25.435-2.25.985m-3.187 4.683c.721.289 1.584.253 1.916-.079s-.258-.568-1.312-.525c-1.165.048-1.402.285-.604.604M138.6 15.6c-.356.927-.422 1.911-.147 2.186s.791-.259 1.147-1.186.422-1.911.147-2.186-.791.259-1.147 1.186m-19.517.765c.23.2 1.385.867 2.567 1.481 1.71.889 2.266.814 2.719-.364.427-1.115-.208-1.482-2.567-1.482-1.724 0-2.948.164-2.719.365M134 19c0 .55.477 1 1.059 1s.781-.45.441-1-.816-1-1.059-1-.441.45-.441 1m6.5 8.916c-2.941.666-2.951.689-.5 1.155 1.375.262 4.075.229 6-.073 3.301-.517 3.358-.589 1-1.26-1.375-.391-2.725-.664-3-.606s-1.85.41-3.5.784M69.19 68.977c-7.321 14.562-13.396 26.562-13.5 26.667-.105.104-3.34-5.376-7.189-12.178s-7.349-12.018-7.777-11.59c-.427.427-1.048 3.065-1.379 5.862-.563 4.754-.17 6.007 6.03 19.218l6.632 14.133-2.545 11.206c-1.4 6.163-2.978 14.57-3.508 18.684-.927 7.201-.328 20.036.934 20.007.337-.007 3.305-7.207 6.596-16S59.716 129 60.019 129c.304 0 1.96 2.855 3.681 6.345 2.373 4.813 3.971 6.746 6.616 8 5.731 2.72 5.939 2.489 5.491-6.095-.372-7.144-.779-8.374-5.198-15.739l-4.794-7.989 7.571-23.682c7.816-24.446 9.957-34.097 9.423-42.477L82.5 42.5zm149.415-24.26c-1.37.351-1.548.7-.641 1.261.978.604.551 4.374-1.942 17.148-3.182 16.305-3.234 16.449-12.256 34.131l-9.06 17.757 2.691 6.243c1.48 3.434 5.507 12.318 8.948 19.743l6.259 13.5 3.707.311c3.107.26 3.848-.064 4.57-2 .545-1.463.39-3.78-.421-6.311-1.328-4.145-7.818-19.62-9.573-22.826-.55-1.005-1.237-3.93-1.527-6.5-.546-4.842.224-7.237 5.177-16.087 1.358-2.428 2.242-4.641 1.964-4.919s.139-1.217.926-2.087c.787-.869 1.501-2.031 1.587-2.581s1.166-3.25 2.4-6 3.075-9.041 4.091-13.981c1.037-5.045 2.634-9.825 3.644-10.909 1.698-1.823 1.702-2.007.074-3.344-.948-.778-1.16-1.129-.473-.781 1.854.939 3.809-.521 2.107-1.574-.746-.461-1.413-1.304-1.482-1.875-.069-.57-.181-1.451-.25-1.959s-1.29-2.308-2.714-4c-2.509-2.982-3.824-3.38-7.806-2.36M138 49.059c0 .582.45.781 1 .441s1-.816 1-1.059-.45-.441-1-.441-1 .477-1 1.059m40 29.022c0 1.055-.488 1.919-1.084 1.919s.259 1.696 1.9 3.768 4.019 5.897 5.284 8.5S186.669 97 187 97s1.581-2.724 2.78-6.054l2.178-6.055-3.368-3.368c-1.852-1.852-4.993-3.816-6.979-4.365-3.24-.894-3.611-.8-3.611.923m-59.655.462c-.326.849-.311 1.824.031 2.167.343.343.624-.113.624-1.012 0-1.043.544-1.427 1.5-1.06.825.317 1.5.078 1.5-.531 0-1.679-2.98-1.324-3.655.436m-1.595 8.146c-.963.252-1.75.833-1.75 1.291s.9.597 2 .31c1.1-.288 2-.921 2-1.407 0-.485-.112-.831-.25-.767s-1.037.322-2 .573M100 125c-1.282.828-1.246.972.25.985.963.008 1.75-.435 1.75-.985 0-1.22-.113-1.22-2 0m45.5 1c.34.55 1.041 1 1.559 1s.941-.45.941-1-.702-1-1.559-1-1.281.45-.941 1m12.75 2.662c-1.785.72-1.545 3.011.393 3.755.904.346 1.879.394 2.167.107s-.054-.524-.76-.524c-.791 0-1.083-.767-.76-2 .287-1.1.452-1.964.366-1.921s-.718.306-1.406.583m23.997 9.514c-11.188 20.839-11.543 21.724-9.782 24.411 3.522 5.375 7.733 2.059 14.896-11.73 2.674-5.146 5.542-9.897 6.374-10.557 1.313-1.043 1.079-1.764-1.79-5.5-1.815-2.365-3.614-4.671-3.997-5.124s-2.948 3.372-5.701 8.5m-26.876-7.02c.272.911-.344 2.415-1.369 3.342-2.094 1.895-2.322 5.562-.297 4.785.712-.273 1.295-.868 1.295-1.32s.862-.968 1.916-1.143c1.879-.314 1.878-.387-.061-3.82-1.088-1.925-1.755-2.755-1.484-1.844m-50.93 2.286c-1.904 1.414-1.901 1.439.142 1.3 1.146-.079 2.084-.727 2.084-1.442 0-1.595.122-1.602-2.226.142M126 133c0 .55.477 1 1.059 1s.781-.45.441-1-.816-1-1.059-1-.441.45-.441 1m22 2c0 .55-.338.947-.75.882-1.982-.313-4.25.207-4.25.974 0 .471 1.688.808 3.75.75s3.637-.444 3.5-.856-.25-1.2-.25-1.75-.45-1-1-1-1 .45-1 1m-1.393 7.582c-.939 2.447-.735 2.689.893 1.061 1.7-1.7 1.917-2.643.607-2.643-.491 0-1.166.712-1.5 1.582M143 144.5c-1.01 1.217-.97 1.5.211 1.5.801 0 1.456-.675 1.456-1.5s-.095-1.5-.211-1.5-.771.675-1.456 1.5m-29 8.608c0 .693-.969.866-2.584.46-1.675-.42-2.358-.283-1.941.392 1.013 1.638 5.525 1.263 5.525-.46 0-.825-.225-1.5-.5-1.5s-.5.499-.5 1.108m-11.472 8.803c-1.788.699-1.727.818.659 1.274 1.925.368 2.492.142 2.115-.841-.284-.739-.58-1.312-.659-1.274s-1.03.417-2.115.841M111 168c0 .55 1.013.993 2.25.985 1.819-.013 1.963-.201.75-.985-1.939-1.253-3-1.253-3 0m6.75.662c.688.278 1.813.278 2.5 0 .688-.277.125-.504-1.25-.504s-1.937.227-1.25.504M90.5 177c-.34.55-.141 1 .441 1S92 177.55 92 177s-.198-1-.441-1-.719.45-1.059 1m68.278 15.75c-1.949 1.512-4.076 4.213-4.726 6-2.95 8.114-10.898 13.478-20.22 13.647-4.191.076-5.236.357-4.002 1.077.919.536 2.024.986 2.456 1 .433.014 1.162.633 1.62 1.375 1.079 1.745 10.397 1.866 15.445.2 9.338-3.082 19.736-19.625 15.524-24.699-1.542-1.858-2.048-1.742-6.097 1.4m-38.547-.958c-1.798.185-3.012.753-2.698 1.261s-.127.656-.981.329c-.854-.328-1.552-.098-1.552.511s.686 1.107 1.525 1.107 4.428 2.7 7.975 6c5.38 5.005 7.041 6 10.015 6 3.598 0 10.766-3.028 12.038-5.085.487-.789.057-.776-1.47.041-2.874 1.538-5.839.467-9.69-3.499-4.959-5.106-9.773-7.222-15.162-6.665M162 219c0 .55.423 1 .941 1s1.219-.45 1.559-1-.084-1-.941-1-1.559.45-1.559 1m-48.699 1.14c-.908 1.096-.452 1.409 2.348 1.614 2.269.166 3.244-.118 2.811-.818-.364-.59-1.263-.842-1.997-.56-.733.281-1.492.038-1.685-.542-.217-.652-.78-.535-1.477.306m-10.634 1.527c-1.104 1.104-.753 2.333.666 2.333.734 0 1.334-.675 1.334-1.5 0-1.582-.884-1.95-2-.833M130 222c0 .55.477 1 1.059 1s.781-.45.441-1-.816-1-1.059-1-.441.45-.441 1m35.211 1.395c1.33 1.439 2.789 1.202 2.789-.454 0-.518-.918-.941-2.039-.941-1.695 0-1.822.236-.75 1.395m-40.564 3.393c.176.709-.685 1.693-1.914 2.187-2.118.852-2.089.901.576.962 1.981.044 2.594-.306 2.078-1.187-.402-.687.166-.466 1.261.492 1.707 1.493 2.257 1.548 3.843.388 1.018-.744 1.959-2.091 2.092-2.992.264-1.801-1.105-2.221-2.083-.638-.719 1.163-5.135 1.355-5.753.25-.23-.412-.275-.17-.1.538m62.103-1.126c.688.278 1.25 1.105 1.25 1.838s-.562 1.523-1.25 1.754 1.675.434 5.25.452c3.575.017 7.135-.211 7.91-.506 2.244-.854-2.662-2.3-5.438-1.604-1.415.355-3.277-.047-4.64-1.001-1.252-.877-2.739-1.559-3.305-1.516-.565.043-.464.306.223.583m-79.937 1.021c.721.289 1.584.253 1.916-.079s-.258-.568-1.312-.525c-1.165.048-1.402.285-.604.604m.187 2.876c0 .857.457 1.276 1.016.931.559-.346.758-1.047.441-1.559-.857-1.387-1.457-1.129-1.457.628m5.441-.091c-1.067.808-1.434 1.483-.813 1.5.62.018 1.687-.643 2.372-1.468 1.581-1.905.935-1.918-1.559-.032M181 235c-1.636 1.057-1.539 1.144 1.665 1.487 1.469.157 1.997-.205 1.643-1.128-.615-1.6-1.276-1.672-3.308-.359m-5.274 3.452c-2.867 1.207-2.692 2.548.334 2.548.949 0 2.01-.739 2.357-1.643.838-2.186.567-2.277-2.691-.905M176.5 243c-.797 1.29 4.504 1.29 6.5 0 1.118-.723.56-.973-2.191-.985-2.03-.008-3.969.435-4.309.985"/><path fill="#1976D2" fill-opacity=".891" fill-rule="evenodd" d="M86.206 47.284c-2.653 1.854-3.175 2.87-3.196 6.216-.034 5.69-2.996 17.031-10.433 39.96l-6.475 19.959 4.949 8.575c4.682 8.113 4.949 8.964 4.949 15.791 0 6.786-.134 7.221-2.25 7.315-2.159.095-2.148.132.25.9 4.514 1.446 9.598 1.101 11.287-.764.878-.971 1.698-3.783 1.822-6.25.232-4.618-1.826-15.098-3.138-15.986-.407-.275-1.746-2.299-2.977-4.497-2.591-4.629-2.822-10.905-.582-15.776 1.346-2.926 3.766-10.469 6.81-21.227.623-2.2 1.369-4.442 1.658-4.982.289-.541.6-1.666.692-2.5s.932-5.781 1.867-10.991c2.604-14.512.794-19.956-5.233-15.743M218.648 51.4c-.271 1.155-1.701 8.175-3.177 15.6-2.568 12.909-3.079 14.258-11.693 30.808l-9.007 17.309 7.756 16.941c4.265 9.318 8.03 16.948 8.364 16.956s1.692.303 3.015.657c2.27.607 2.375.447 1.846-2.811-.308-1.9-3.125-9.249-6.259-16.331-6.776-15.314-6.761-16.729.332-29.529 1.066-1.925 2.439-4.625 3.05-6s1.527-3.175 2.037-4c4.484-7.26 9.347-25.437 9.498-35.5.088-5.839.018-6.003-2.589-6.1-1.945-.072-2.815.476-3.173 2M46.744 73.399c-.828.828-1.784 1.227-2.125.887S44 73.99 44 74.385c0 1.122 11.283 20.616 11.927 20.607.315-.004 1.771-2.9 3.235-6.434s2.139-6.246 1.5-6.025-2.745-1.945-4.68-4.815c-3.717-5.512-6.666-6.891-9.238-4.319m134.729 9.961c-.719.798-.065 3.058 2.178 7.53l3.205 6.391 1.617-3.872c1.34-3.205 1.401-4.275.358-6.225-1.684-3.146-5.965-5.371-7.358-3.824M59.696 129.683c-.55.89-7.693 19.816-11.253 29.817-.691 1.941-.669 1.944.762.11 1.324-1.699 1.537-1.724 2.103-.25.346.902 1.559 1.64 2.696 1.64 3.772 0 6.829-2.976 8.555-8.33 2.159-6.693 4.205-9.92 5.735-9.041.663.382.229-.392-.965-1.718-1.195-1.326-3.245-4.872-4.557-7.879-1.349-3.092-2.685-4.982-3.076-4.349m125.92 2.662c-6.113 10.65-11.574 22.601-11.005 24.085 1.368 3.565 4.755 1.249 8.674-5.93 2.101-3.85 4.904-8.849 6.228-11.11l2.407-4.11-2.246-3.045-2.247-3.045zm-91.594 54.02c-1.598 4.585-1.203 10.826.904 14.282 2.415 3.959 7.911 6.046 11.238 4.265 2.247-1.202 2.248-1.215.188-1.977-2.653-.982-3.45-3.043-3.989-10.32-.551-7.428-1.702-9.647-4.869-9.385-1.719.142-2.754 1.077-3.472 3.135m30.048 13.734c4.051 5.689 11.005 8.437 14.93 5.901 1.238-.8 1.145-.972-.536-.985-1.12-.008-4.045-1.802-6.5-3.987-2.918-2.596-5.44-3.981-7.282-4l-2.818-.028zm-9.678 5.981c-1.621 2.414-4.06 4.951-5.42 5.64-2.366 1.197-2.292 1.251 1.707 1.265 2.298.008 4.773-.566 5.5-1.276.726-.71 2.358-2.007 3.625-2.882l2.303-1.591-2.384-2.772-2.384-2.772zm36.135-.481c-.782 1.193-3.808 3.384-6.724 4.869l-5.303 2.699 4.5-.7c6.611-1.027 13-4.998 13-8.079 0-2.027-3.919-1.16-5.473 1.211"/></svg>